# xmcd
#
# Track frame offsets: 
#        150
#        22367
#        43432
#        65122
#        84825
#        105973
#        128285
#        156210
#        180526
#        199000
#        222700
#
# Disc length: 3253 seconds
#
# Revision: 6
# Processed by: cddbd v1.5.2PL0 Copyright (c) Steve Scherf et al.
# Submitted via: ExactAudioCopy v1.1
#
DISCID=9a0cb30b
DTITLE=Gregg Karukas - Looking Up
DYEAR=2005
DGENRE=Smooth Jazz
TTITLE0=Girl In The Red Dress
TTITLE1=London Underground
TTITLE2=Looking Up
TTITLE3=Relentless
TTITLE4=First Flight Home feat. Rick Braun and Ricardo Silveira
TTITLE5=Show Me The Way feat. Michael O'Neil and Andy Suzuki
TTITLE6=Corner Club／Clube Da Esquina feat. Ricardo Silveira and Andy S
TTITLE6=uzuki
TTITLE7=Isabella feat. Richard Smith
TTITLE8=CrossRhodes feat. Ricardo Silveira
TTITLE9=Deep Into You feat. Peter White and Richard Smith
TTITLE10=Lost In Negril feat. Richard Smith
EXTD=YEAR: 2005
EXTT0=
EXTT1=
EXTT2=
EXTT3=
EXTT4=
EXTT5=
EXTT6=
EXTT7=
EXTT8=
EXTT9=
EXTT10=
PLAYORDER=
